<svg width="13" height="13" viewBox="0 0 13 13" fill="none" xmlns="http://www.w3.org/2000/svg">
<g clip-path="url(#clip0_53_130)">
<path fill-rule="evenodd" clip-rule="evenodd" d="M1.97321 1.50893C1.97321 1.31671 2.12921 1.16071 2.32143 1.16071H5.91964V11.8393H2.32143C2.22908 11.8393 2.14051 11.8026 2.0752 11.7373C2.0099 11.672 1.97321 11.5834 1.97321 11.4911V1.50893ZM7.08036 11.8393V1.16071H10.6786C10.8708 1.16071 11.0268 1.31671 11.0268 1.50893V11.4911C11.0268 11.5834 10.9901 11.672 10.9248 11.7373C10.8595 11.8026 10.7709 11.8393 10.6786 11.8393H7.08036ZM6.5 13H2.32143C2.12327 13 1.92706 12.961 1.74399 12.8851C1.56091 12.8093 1.39457 12.6982 1.25445 12.558C1.11434 12.4179 1.00319 12.2516 0.92736 12.0685C0.85153 11.8854 0.8125 11.6892 0.8125 11.4911V1.50893C0.8125 0.676 1.4885 0 2.32143 0H10.6786C11.5124 0 12.1875 0.676 12.1875 1.50893V11.4911C12.1875 12.3249 11.5124 13 10.6786 13H6.5ZM8.82143 5.33929C9.00613 5.33929 9.18327 5.41266 9.31388 5.54326C9.44448 5.67387 9.51786 5.85101 9.51786 6.03571V6.96429C9.51786 7.14899 9.44448 7.32613 9.31388 7.45673C9.18327 7.58734 9.00613 7.66071 8.82143 7.66071C8.63672 7.66071 8.45959 7.58734 8.32898 7.45673C8.19837 7.32613 8.125 7.14899 8.125 6.96429V6.03571C8.125 5.85101 8.19837 5.67387 8.32898 5.54326C8.45959 5.41266 8.63672 5.33929 8.82143 5.33929ZM4.875 6.03571C4.875 5.85101 4.80163 5.67387 4.67102 5.54326C4.54042 5.41266 4.36328 5.33929 4.17857 5.33929C3.99387 5.33929 3.81673 5.41266 3.68612 5.54326C3.55552 5.67387 3.48214 5.85101 3.48214 6.03571V6.96429C3.48214 7.14899 3.55552 7.32613 3.68612 7.45673C3.81673 7.58734 3.99387 7.66071 4.17857 7.66071C4.36328 7.66071 4.54042 7.58734 4.67102 7.45673C4.80163 7.32613 4.875 7.14899 4.875 6.96429V6.03571Z" fill="black"/>
</g>
<defs>
<clipPath id="clip0_53_130">
<rect width="13" height="13" fill="white"/>
</clipPath>
</defs>
</svg>
