<svg width="22" height="22" viewBox="0 0 22 22" fill="none" xmlns="http://www.w3.org/2000/svg">
<g clip-path="url(#clip0_53_74)">
<path d="M11.5893 1.76786C11.5893 1.61157 11.5272 1.46168 11.4167 1.35117C11.3061 1.24066 11.1563 1.17857 11 1.17857C10.8437 1.17857 10.6938 1.24066 10.5833 1.35117C10.4728 1.46168 10.4107 1.61157 10.4107 1.76786V2.35714H6.87497C6.30191 2.35714 5.75232 2.58479 5.34711 2.99C4.9419 3.39521 4.71425 3.9448 4.71425 4.51786V8.83928C4.71425 9.41234 4.9419 9.96193 5.34711 10.3671C5.54775 10.5678 5.78595 10.7269 6.0481 10.8355C6.31025 10.9441 6.59122 11 6.87497 11H14.0124C14.0648 10.9052 14.108 10.8057 14.142 10.7014L14.3801 9.82143H6.87497C6.33282 9.82143 5.89282 9.38143 5.89282 8.83928V4.51786C5.89282 3.97571 6.33282 3.53571 6.87497 3.53571H15.125C15.6671 3.53571 16.1071 3.97571 16.1071 4.51786V8.70728C16.2187 8.74709 16.3234 8.80131 16.4214 8.86993C16.6351 9.02858 16.7965 9.24747 16.885 9.4985L17.0138 9.889C17.1867 9.57786 17.2857 9.22036 17.2857 8.83928V4.51786C17.2857 4.23411 17.2298 3.95314 17.1212 3.69099C17.0126 3.42884 16.8535 3.19064 16.6528 2.99C16.4522 2.78936 16.214 2.6302 15.9518 2.52162C15.6897 2.41303 15.4087 2.35714 15.125 2.35714H11.5893V1.76786ZM5.30354 12.5714H11.2883C11.1538 12.7326 11.0623 12.9252 11.0225 13.1313C10.9826 13.3375 10.9957 13.5503 11.0605 13.75H5.30354C4.76139 13.75 4.32139 14.19 4.32139 14.7321V15.3214C4.32139 16.4395 4.84311 17.3902 5.91875 18.0871C7.01718 18.7998 8.70804 19.25 11 19.25C13.2919 19.25 14.9828 18.7998 16.0812 18.0871C16.1437 18.0467 16.2053 18.0048 16.2658 17.9614C16.3271 17.9326 16.3866 17.8986 16.4442 17.8593L16.5463 17.7729C16.5162 17.8695 16.5005 17.9702 16.5 18.0714C16.5023 18.293 16.5707 18.5091 16.6964 18.6921C16.7615 18.7852 16.8417 18.8667 16.9337 18.9334C16.8646 18.9826 16.7944 19.0303 16.7231 19.0764C15.3654 19.9571 13.4223 20.4286 11 20.4286C8.57761 20.4286 6.63454 19.9556 5.27761 19.0771C3.89789 18.1822 3.14282 16.874 3.14282 15.3214V14.7321C3.14282 14.1591 3.37047 13.6095 3.77568 13.2043C4.18089 12.7991 4.73048 12.5714 5.30354 12.5714ZM9.82139 6.67857C9.82139 6.83334 9.79091 6.9866 9.73168 7.12959C9.67245 7.27258 9.58564 7.40251 9.4762 7.51195C9.36676 7.62139 9.23683 7.7082 9.09384 7.76743C8.95085 7.82666 8.7976 7.85714 8.64282 7.85714C8.48805 7.85714 8.33479 7.82666 8.1918 7.76743C8.04881 7.7082 7.91889 7.62139 7.80945 7.51195C7.70001 7.40251 7.61319 7.27258 7.55396 7.12959C7.49474 6.9866 7.46425 6.83334 7.46425 6.67857C7.46425 6.36599 7.58842 6.06622 7.80945 5.84519C8.03047 5.62417 8.33025 5.5 8.64282 5.5C8.9554 5.5 9.25517 5.62417 9.4762 5.84519C9.69722 6.06622 9.82139 6.36599 9.82139 6.67857ZM13.3571 7.85714C13.6697 7.85714 13.9695 7.73297 14.1905 7.51195C14.4115 7.29092 14.5357 6.99115 14.5357 6.67857C14.5357 6.36599 14.4115 6.06622 14.1905 5.84519C13.9695 5.62417 13.6697 5.5 13.3571 5.5C13.0445 5.5 12.7448 5.62417 12.5237 5.84519C12.3027 6.06622 12.1785 6.36599 12.1785 6.67857C12.1785 6.99115 12.3027 7.29092 12.5237 7.51195C12.7448 7.73297 13.0445 7.85714 13.3571 7.85714ZM14.2772 14.7934C14.5496 15.0673 14.7543 15.4009 14.8751 15.7677L15.2664 16.9691C15.2993 17.0615 15.36 17.1415 15.4402 17.1981C15.5204 17.2547 15.6161 17.2851 15.7143 17.2851C15.8124 17.2851 15.9081 17.2547 15.9883 17.1981C16.0685 17.1415 16.1292 17.0615 16.1621 16.9691L16.5534 15.7669C16.675 15.4014 16.8802 15.0693 17.1527 14.797C17.4253 14.5247 17.7576 14.3198 18.1233 14.1986L19.3254 13.8081C19.4182 13.7756 19.4986 13.715 19.5555 13.6348C19.6124 13.5546 19.643 13.4586 19.643 13.3603C19.643 13.2619 19.6124 13.166 19.5555 13.0858C19.4986 13.0055 19.4182 12.945 19.3254 12.9124L19.3018 12.9061L18.0989 12.5156C17.7332 12.3944 17.4009 12.1896 17.1284 11.9173C16.8558 11.645 16.6506 11.3129 16.529 10.9474L16.1385 9.74521C16.106 9.65239 16.0454 9.57197 15.9652 9.51508C15.885 9.45818 15.789 9.42762 15.6907 9.42762C15.5923 9.42762 15.4964 9.45818 15.4162 9.51508C15.3359 9.57197 15.2754 9.65239 15.2428 9.74521L14.8515 10.9474L14.8413 10.9772C14.7193 11.3336 14.5174 11.6575 14.2512 11.9241C13.985 12.1907 13.6615 12.393 13.3053 12.5156L12.1031 12.9061C12.0103 12.9387 11.9299 12.9992 11.873 13.0795C11.8161 13.1597 11.7855 13.2556 11.7855 13.354C11.7855 13.4524 11.8161 13.5483 11.873 13.6285C11.9299 13.7087 12.0103 13.7693 12.1031 13.8019L13.3053 14.1924C13.6722 14.3141 14.0045 14.5208 14.2772 14.7934ZM21.0736 17.567L21.7949 17.8011L21.8098 17.8043C21.8657 17.8237 21.9141 17.8599 21.9483 17.9081C21.9826 17.9563 22.001 18.0139 22.001 18.073C22.001 18.1321 21.9826 18.1897 21.9483 18.2379C21.9141 18.2861 21.8657 18.3223 21.8098 18.3417L21.0878 18.5759C20.8687 18.6492 20.6697 18.7724 20.5064 18.9358C20.3431 19.0991 20.2198 19.2981 20.1465 19.5171L19.9115 20.2384C19.8918 20.2939 19.8554 20.3419 19.8073 20.3759C19.7592 20.4098 19.7017 20.428 19.6428 20.428C19.5839 20.428 19.5265 20.4098 19.4784 20.3759C19.4303 20.3419 19.3938 20.2939 19.3741 20.2384L19.1392 19.5171C19.0668 19.2972 18.9439 19.0973 18.7805 18.9333C18.6171 18.7694 18.4176 18.6459 18.1979 18.5727L17.4758 18.3386C17.42 18.3192 17.3716 18.2829 17.3373 18.2348C17.303 18.1866 17.2846 18.129 17.2846 18.0699C17.2846 18.0108 17.303 17.9531 17.3373 17.905C17.3716 17.8568 17.42 17.8205 17.4758 17.8011L18.1979 17.567C18.4143 17.4918 18.6105 17.3677 18.7713 17.2045C18.932 17.0413 19.0531 16.8432 19.125 16.6257L19.36 15.9044C19.3797 15.8489 19.4161 15.8009 19.4642 15.767C19.5124 15.733 19.5698 15.7148 19.6287 15.7148C19.6876 15.7148 19.745 15.733 19.7931 15.767C19.8412 15.8009 19.8777 15.8489 19.8974 15.9044L20.1315 16.6257C20.2045 16.8451 20.3276 17.0445 20.4911 17.2079C20.6547 17.3713 20.8541 17.4943 21.0736 17.567Z" fill="black"/>
</g>
<defs>
<clipPath id="clip0_53_74">
<rect width="22" height="22" fill="white"/>
</clipPath>
</defs>
</svg>
