<svg width="56" height="56" viewBox="0 0 56 56" fill="none" xmlns="http://www.w3.org/2000/svg">
<path fill-rule="evenodd" clip-rule="evenodd" d="M4.72498 36.75C4.88131 41.4657 5.43198 44.2983 7.39898 46.2653C8.11544 46.9773 8.97308 47.5313 9.91664 47.8917V51.3333C9.91664 51.7975 10.101 52.2426 10.4292 52.5708C10.7574 52.899 11.2025 53.0833 11.6666 53.0833C12.1308 53.0833 12.5759 52.899 12.9041 52.5708C13.2323 52.2426 13.4166 51.7975 13.4166 51.3333V48.699C15.9133 49 19.117 49 23.3333 49H32.6666C36.8806 49 40.0866 49 42.5833 48.699V51.3333C42.5833 51.7975 42.7677 52.2426 43.0959 52.5708C43.4241 52.899 43.8692 53.0833 44.3333 53.0833C44.7974 53.0833 45.2426 52.899 45.5707 52.5708C45.8989 52.2426 46.0833 51.7975 46.0833 51.3333V47.8917C47.026 47.531 47.8829 46.977 48.5986 46.2653C50.484 44.38 51.0696 41.7013 51.2516 37.3333L51.2726 36.75C51.2773 35.8353 51.3333 31.3647 51.3333 30.3333V23.3333C51.3333 14.5343 51.3333 10.1337 48.5986 7.40132C45.864 4.66899 41.4656 4.66666 32.6666 4.66666H29.75V36.75H4.72498ZM14.5833 42C14.5833 41.5359 14.7677 41.0907 15.0959 40.7626C15.4241 40.4344 15.8692 40.25 16.3333 40.25H21C21.4641 40.25 21.9092 40.4344 22.2374 40.7626C22.5656 41.0907 22.75 41.5359 22.75 42C22.75 42.4641 22.5656 42.9092 22.2374 43.2374C21.9092 43.5656 21.4641 43.75 21 43.75H16.3333C15.8692 43.75 15.4241 43.5656 15.0959 43.2374C14.7677 42.9092 14.5833 42.4641 14.5833 42ZM35 40.25C34.5358 40.25 34.0907 40.4344 33.7625 40.7626C33.4343 41.0907 33.25 41.5359 33.25 42C33.25 42.4641 33.4343 42.9092 33.7625 43.2374C34.0907 43.5656 34.5358 43.75 35 43.75H39.6666C40.1308 43.75 40.5759 43.5656 40.9041 43.2374C41.2323 42.9092 41.4166 42.4641 41.4166 42C41.4166 41.5359 41.2323 41.0907 40.9041 40.7626C40.5759 40.4344 40.1308 40.25 39.6666 40.25H35ZM35 16.9167C35.4641 16.9167 35.9092 17.101 36.2374 17.4292C36.5656 17.7574 36.75 18.2025 36.75 18.6667V23.3333C36.75 23.7975 36.5656 24.2426 36.2374 24.5708C35.9092 24.8989 35.4641 25.0833 35 25.0833C34.5358 25.0833 34.0907 24.8989 33.7625 24.5708C33.4343 24.2426 33.25 23.7975 33.25 23.3333V18.6667C33.25 18.2025 33.4343 17.7574 33.7625 17.4292C34.0907 17.101 34.5358 16.9167 35 16.9167Z" fill="black"/>
<path opacity="0.5" d="M23.3333 4.66666H26.25V16.9167H4.72729C4.88129 12.201 5.43196 9.36832 7.40129 7.40132C10.1336 4.66666 14.5343 4.66666 23.3333 4.66666ZM4.67129 20.4167C4.66818 21.3298 4.66663 22.302 4.66663 23.3333V30.3333C4.66663 31.3647 4.72263 35.8353 4.72496 36.75H26.25V20.4167H4.67129Z" fill="black"/>
</svg>
