<svg width="21" height="21" viewBox="0 0 21 21" fill="none" xmlns="http://www.w3.org/2000/svg">
<path d="M15.1375 9.625C15.1375 12.25 12.915 14.0875 10.5 14.0875C8.085 14.0875 5.8625 12.25 5.8625 9.625H4.375C4.375 12.6088 6.755 15.0762 9.625 15.505V18.375H11.375V15.505C14.245 15.0762 16.625 12.6088 16.625 9.625M9.45 4.2875C9.45 3.71 9.9225 3.2375 10.5 3.2375C11.0775 3.2375 11.55 3.71 11.55 4.2875L11.5412 9.7125C11.5412 10.29 11.0775 10.7625 10.5 10.7625C9.9225 10.7625 9.45 10.29 9.45 9.7125M10.5 12.25C11.1962 12.25 11.8639 11.9734 12.3562 11.4812C12.8484 10.9889 13.125 10.3212 13.125 9.625V4.375C13.125 3.67881 12.8484 3.01113 12.3562 2.51884C11.8639 2.02656 11.1962 1.75 10.5 1.75C9.80381 1.75 9.13613 2.02656 8.64384 2.51884C8.15156 3.01113 7.875 3.67881 7.875 4.375V9.625C7.875 10.3212 8.15156 10.9889 8.64384 11.4812C9.13613 11.9734 9.80381 12.25 10.5 12.25Z" fill="black"/>
</svg>
