<svg width="14" height="14" viewBox="0 0 14 14" fill="none" xmlns="http://www.w3.org/2000/svg">
<path fill-rule="evenodd" clip-rule="evenodd" d="M2.33333 4.08332H7.09917C7.21968 3.74176 7.44318 3.44599 7.73885 3.23678C8.03452 3.02757 8.3878 2.91522 8.75 2.91522C9.1122 2.91522 9.46548 3.02757 9.76115 3.23678C10.0568 3.44599 10.2803 3.74176 10.4008 4.08332H11.6667C11.8214 4.08332 11.9697 4.14478 12.0791 4.25417C12.1885 4.36357 12.25 4.51194 12.25 4.66665C12.25 4.82136 12.1885 4.96973 12.0791 5.07913C11.9697 5.18853 11.8214 5.24998 11.6667 5.24998H10.4008C10.2803 5.59155 10.0568 5.88732 9.76115 6.09652C9.46548 6.30573 9.1122 6.41808 8.75 6.41808C8.3878 6.41808 8.03452 6.30573 7.73885 6.09652C7.44318 5.88732 7.21968 5.59155 7.09917 5.24998H2.33333C2.17862 5.24998 2.03025 5.18853 1.92085 5.07913C1.81146 4.96973 1.75 4.82136 1.75 4.66665C1.75 4.51194 1.81146 4.36357 1.92085 4.25417C2.03025 4.14478 2.17862 4.08332 2.33333 4.08332ZM2.33333 8.74999H3.59917C3.71968 8.40842 3.94318 8.11265 4.23885 7.90344C4.53452 7.69424 4.8878 7.58189 5.25 7.58189C5.6122 7.58189 5.96548 7.69424 6.26115 7.90344C6.55682 8.11265 6.78032 8.40842 6.90083 8.74999H11.6667C11.8214 8.74999 11.9697 8.81144 12.0791 8.92084C12.1885 9.03024 12.25 9.17861 12.25 9.33332C12.25 9.48803 12.1885 9.6364 12.0791 9.7458C11.9697 9.85519 11.8214 9.91665 11.6667 9.91665H6.90083C6.78032 10.2582 6.55682 10.554 6.26115 10.7632C5.96548 10.9724 5.6122 11.0847 5.25 11.0847C4.8878 11.0847 4.53452 10.9724 4.23885 10.7632C3.94318 10.554 3.71968 10.2582 3.59917 9.91665H2.33333C2.17862 9.91665 2.03025 9.85519 1.92085 9.7458C1.81146 9.6364 1.75 9.48803 1.75 9.33332C1.75 9.17861 1.81146 9.03024 1.92085 8.92084C2.03025 8.81144 2.17862 8.74999 2.33333 8.74999Z" fill="black"/>
</svg>
