<svg width="28" height="28" viewBox="0 0 28 28" fill="none" xmlns="http://www.w3.org/2000/svg">
<path d="M12.25 23.3334C12.25 23.7975 12.4344 24.2426 12.7626 24.5708C13.0908 24.899 13.5359 25.0834 14 25.0834C14.4641 25.0834 14.9093 24.899 15.2375 24.5708C15.5656 24.2426 15.75 23.7975 15.75 23.3334V15.75H23.3334C23.7975 15.75 24.2426 15.5656 24.5708 15.2375C24.899 14.9093 25.0834 14.4641 25.0834 14C25.0834 13.5359 24.899 13.0908 24.5708 12.7626C24.2426 12.4344 23.7975 12.25 23.3334 12.25H15.75V4.66669C15.75 4.20256 15.5656 3.75744 15.2375 3.42925C14.9093 3.10106 14.4641 2.91669 14 2.91669C13.5359 2.91669 13.0908 3.10106 12.7626 3.42925C12.4344 3.75744 12.25 4.20256 12.25 4.66669V12.25H4.66669C4.20256 12.25 3.75744 12.4344 3.42925 12.7626C3.10106 13.0908 2.91669 13.5359 2.91669 14C2.91669 14.4641 3.10106 14.9093 3.42925 15.2375C3.75744 15.5656 4.20256 15.75 4.66669 15.75H12.25V23.3334Z" fill="white"/>
</svg>
