<svg width="38" height="38" viewBox="0 0 38 38" fill="none" xmlns="http://www.w3.org/2000/svg">
<g clip-path="url(#clip0_7_163)">
<path d="M20.0178 3.05356C20.0178 2.78361 19.9106 2.52471 19.7197 2.33383C19.5288 2.14294 19.2699 2.03571 19 2.03571C18.73 2.03571 18.4711 2.14294 18.2803 2.33383C18.0894 2.52471 17.9821 2.78361 17.9821 3.05356V4.07142H11.875C10.8852 4.07142 9.93588 4.46463 9.23596 5.16454C8.53605 5.86445 8.14284 6.81374 8.14284 7.80356V15.2678C8.14284 16.2577 8.53605 17.207 9.23596 17.9069C9.58252 18.2534 9.99395 18.5283 10.4468 18.7159C10.8996 18.9035 11.3849 19 11.875 19H24.2033C24.2937 18.8362 24.3684 18.6643 24.4272 18.4843L24.8384 16.9643H11.875C10.9386 16.9643 10.1786 16.2043 10.1786 15.2678V7.80356C10.1786 6.86713 10.9386 6.10713 11.875 6.10713H26.125C27.0614 6.10713 27.8214 6.86713 27.8214 7.80356V15.0398C28.0141 15.1086 28.1951 15.2023 28.3643 15.3208C28.7334 15.5948 29.0122 15.9729 29.165 16.4065L29.3876 17.081C29.6861 16.5436 29.8571 15.9261 29.8571 15.2678V7.80356C29.8571 7.31345 29.7606 6.82814 29.573 6.37533C29.3855 5.92253 29.1106 5.5111 28.764 5.16454C28.4174 4.81798 28.006 4.54307 27.5532 4.35551C27.1004 4.16795 26.6151 4.07142 26.125 4.07142H20.0178V3.05356ZM9.1607 21.7143H19.4981C19.2657 21.9926 19.1077 22.3254 19.0389 22.6814C18.97 23.0374 18.9926 23.4051 19.1045 23.75H9.1607C8.22427 23.75 7.46427 24.51 7.46427 25.4464V26.4643C7.46427 28.3955 8.36542 30.0376 10.2233 31.2414C12.1206 32.4723 15.0412 33.25 19 33.25C22.9588 33.25 25.8793 32.4723 27.7766 31.2414C27.8846 31.1716 27.991 31.0992 28.0956 31.0243C28.2014 30.9745 28.3041 30.9157 28.4036 30.8478L28.5801 30.6986C28.528 30.8655 28.501 31.0394 28.5 31.2143C28.5041 31.597 28.6221 31.9702 28.8393 32.2864C28.9518 32.4471 29.0903 32.5879 29.2491 32.7031C29.1298 32.7882 29.0085 32.8705 28.8854 32.9501C26.5403 34.4714 23.1841 35.2857 19 35.2857C14.8159 35.2857 11.4597 34.4687 9.11592 32.9514C6.73277 31.4056 5.42856 29.146 5.42856 26.4643V25.4464C5.42856 24.4566 5.82176 23.5073 6.52168 22.8074C7.22159 22.1075 8.17088 21.7143 9.1607 21.7143ZM16.9643 11.5357C16.9643 11.803 16.9116 12.0678 16.8093 12.3147C16.707 12.5617 16.5571 12.7861 16.368 12.9752C16.179 13.1642 15.9546 13.3142 15.7076 13.4165C15.4606 13.5188 15.1959 13.5714 14.9286 13.5714C14.6612 13.5714 14.3965 13.5188 14.1495 13.4165C13.9025 13.3142 13.6781 13.1642 13.4891 12.9752C13.3001 12.7861 13.1501 12.5617 13.0478 12.3147C12.9455 12.0678 12.8928 11.803 12.8928 11.5357C12.8928 10.9958 13.1073 10.478 13.4891 10.0962C13.8709 9.71447 14.3887 9.49999 14.9286 9.49999C15.4685 9.49999 15.9863 9.71447 16.368 10.0962C16.7498 10.478 16.9643 10.9958 16.9643 11.5357ZM23.0714 13.5714C23.6113 13.5714 24.1291 13.3569 24.5109 12.9752C24.8927 12.5934 25.1071 12.0756 25.1071 11.5357C25.1071 10.9958 24.8927 10.478 24.5109 10.0962C24.1291 9.71447 23.6113 9.49999 23.0714 9.49999C22.5315 9.49999 22.0137 9.71447 21.6319 10.0962C21.2502 10.478 21.0357 10.9958 21.0357 11.5357C21.0357 12.0756 21.2502 12.5934 21.6319 12.9752C22.0137 13.3569 22.5315 13.5714 23.0714 13.5714ZM24.6606 25.5523C25.1311 26.0253 25.4847 26.6015 25.6934 27.2351L26.3693 29.3102C26.4261 29.4699 26.531 29.6081 26.6695 29.7059C26.808 29.8036 26.9733 29.8561 27.1428 29.8561C27.3124 29.8561 27.4777 29.8036 27.6162 29.7059C27.7547 29.6081 27.8596 29.4699 27.9164 29.3102L28.5923 27.2338C28.8023 26.6024 29.1567 26.0287 29.6275 25.5584C30.0982 25.0882 30.6722 24.7343 31.3038 24.5249L33.3803 23.8504C33.5406 23.7942 33.6795 23.6896 33.7778 23.551C33.8761 23.4124 33.9288 23.2467 33.9288 23.0768C33.9288 22.907 33.8761 22.7413 33.7778 22.6027C33.6795 22.4641 33.5406 22.3595 33.3803 22.3033L33.3396 22.2924L31.2618 21.6179C30.6302 21.4086 30.0561 21.0547 29.5854 20.5844C29.1147 20.1141 28.7602 19.5405 28.5502 18.9091L27.8757 16.8326C27.8195 16.6723 27.7149 16.5334 27.5763 16.4351C27.4377 16.3369 27.272 16.2841 27.1021 16.2841C26.9322 16.2841 26.7665 16.3369 26.628 16.4351C26.4894 16.5334 26.3848 16.6723 26.3286 16.8326L25.6527 18.9091L25.6351 18.9606C25.4242 19.5763 25.0756 20.1357 24.6158 20.5962C24.156 21.0567 23.5972 21.4061 22.9818 21.6179L20.9054 22.2924C20.7451 22.3486 20.6062 22.4532 20.5079 22.5918C20.4096 22.7304 20.3568 22.8961 20.3568 23.066C20.3568 23.2359 20.4096 23.4016 20.5079 23.5402C20.6062 23.6787 20.7451 23.7834 20.9054 23.8396L22.9818 24.5141C23.6156 24.7244 24.1897 25.0813 24.6606 25.5523ZM36.3999 30.343L37.6458 30.7474L37.6716 30.7528C37.768 30.7863 37.8516 30.849 37.9108 30.9322C37.97 31.0154 38.0018 31.1149 38.0018 31.217C38.0018 31.3191 37.97 31.4186 37.9108 31.5018C37.8516 31.585 37.768 31.6477 37.6716 31.6811L36.4243 32.0856C36.046 32.2123 35.7023 32.4251 35.4202 32.7072C35.138 32.9894 34.9252 33.3331 34.7985 33.7114L34.3927 34.9573C34.3586 35.0531 34.2957 35.136 34.2126 35.1947C34.1295 35.2533 34.0303 35.2848 33.9286 35.2848C33.8269 35.2848 33.7276 35.2533 33.6445 35.1947C33.5614 35.136 33.4985 35.0531 33.4644 34.9573L33.0586 33.7114C32.9335 33.3316 32.7214 32.9863 32.4391 32.703C32.1568 32.4198 31.8122 32.2065 31.4328 32.0801L30.1856 31.6757C30.0891 31.6422 30.0055 31.5796 29.9463 31.4964C29.8871 31.4132 29.8553 31.3136 29.8553 31.2116C29.8553 31.1095 29.8871 31.0099 29.9463 30.9267C30.0055 30.8436 30.0891 30.7809 30.1856 30.7474L31.4328 30.343C31.8066 30.213 32.1454 29.9988 32.4231 29.7169C32.7008 29.4349 32.9099 29.0929 33.0342 28.7171L33.44 27.4713C33.4741 27.3755 33.537 27.2925 33.6201 27.2339C33.7032 27.1752 33.8024 27.1438 33.9041 27.1438C34.0058 27.1438 34.1051 27.1752 34.1882 27.2339C34.2713 27.2925 34.3342 27.3755 34.3683 27.4713L34.7727 28.7171C34.8986 29.0961 35.1113 29.4404 35.3938 29.7227C35.6763 30.005 36.0208 30.2174 36.3999 30.343Z" fill="black"/>
</g>
<defs>
<clipPath id="clip0_7_163">
<rect width="38" height="38" fill="white"/>
</clipPath>
</defs>
</svg>
