<svg width="38" height="38" viewBox="0 0 38 38" fill="none" xmlns="http://www.w3.org/2000/svg">
<path d="M19 18.2084L3.16667 29.2917V34.8334H34.8333V29.2917L19 18.2084ZM19 18.2084V14.25L13.4583 11.0834V8.70835C13.4583 7.98061 13.6017 7.26 13.8802 6.58765C14.1587 5.9153 14.5669 5.30439 15.0815 4.7898C15.596 4.27521 16.207 3.86702 16.8793 3.58852C17.5516 3.31003 18.2723 3.16669 19 3.16669C19.7277 3.16669 20.4484 3.31003 21.1207 3.58852C21.7931 3.86702 22.404 4.27521 22.9186 4.7898C23.4331 5.30439 23.8413 5.9153 24.1198 6.58765C24.3983 7.26 24.5417 7.98061 24.5417 8.70835V9.50002" stroke="black" stroke-width="1.5"/>
</svg>
