<svg width="38" height="38" viewBox="0 0 38 38" fill="none" xmlns="http://www.w3.org/2000/svg">
<path d="M9.49999 30.0834H14.25V22.1667C14.25 21.7181 14.402 21.3423 14.706 21.0394C15.01 20.7364 15.3858 20.5844 15.8333 20.5834H22.1667C22.6153 20.5834 22.9916 20.7354 23.2956 21.0394C23.5996 21.3434 23.7511 21.7191 23.75 22.1667V30.0834H28.5V15.8334L19 8.70835L9.49999 15.8334V30.0834ZM6.33333 30.0834V15.8334C6.33333 15.332 6.44574 14.857 6.67058 14.4084C6.89541 13.9597 7.20522 13.5903 7.6 13.3L17.1 6.17502C17.6542 5.7528 18.2875 5.54169 19 5.54169C19.7125 5.54169 20.3458 5.7528 20.9 6.17502L30.4 13.3C30.7958 13.5903 31.1062 13.9597 31.331 14.4084C31.5558 14.857 31.6677 15.332 31.6667 15.8334V30.0834C31.6667 30.9542 31.3563 31.6999 30.7357 32.3206C30.115 32.9413 29.3698 33.2511 28.5 33.25H22.1667C21.7181 33.25 21.3423 33.098 21.0393 32.794C20.7364 32.49 20.5844 32.1142 20.5833 31.6667V23.75H17.4167V31.6667C17.4167 32.1153 17.2647 32.4916 16.9607 32.7956C16.6567 33.0996 16.2809 33.2511 15.8333 33.25H9.49999C8.62916 33.25 7.88394 32.9402 7.26433 32.3206C6.64472 31.701 6.33438 30.9552 6.33333 30.0834Z" fill="black"/>
</svg>
