<svg width="38" height="38" viewBox="0 0 38 38" fill="none" xmlns="http://www.w3.org/2000/svg">
<path d="M32.0625 19.9025V18.0856L34.3425 16.0906C34.7628 15.7202 35.0386 15.2131 35.1212 14.659C35.2037 14.1049 35.0878 13.5394 34.7937 13.0625L31.9912 8.31249C31.783 7.95181 31.4836 7.65222 31.123 7.44379C30.7624 7.23536 30.3534 7.12542 29.9369 7.12499C29.6788 7.12302 29.4221 7.16313 29.1769 7.24374L26.2912 8.21749C25.7937 7.88535 25.2739 7.58777 24.7356 7.32687L24.13 4.33437C24.0214 3.78765 23.724 3.29654 23.2898 2.94702C22.8556 2.59749 22.3123 2.41181 21.755 2.42249H16.1975C15.6402 2.41181 15.0969 2.59749 14.6627 2.94702C14.2285 3.29654 13.9311 3.78765 13.8225 4.33437L13.2169 7.32687C12.6753 7.58889 12.1517 7.88642 11.6494 8.21749L8.82312 7.19624C8.57528 7.13167 8.31864 7.10761 8.06312 7.12499C7.64663 7.12542 7.23758 7.23536 6.877 7.44379C6.51642 7.65222 6.21699 7.95181 6.00874 8.31249L3.20624 13.0625C2.92907 13.5387 2.82607 14.0964 2.91489 14.6402C3.00371 15.1839 3.27883 15.6799 3.69312 16.0431L5.93749 18.0975V19.9144L3.69312 21.9094C3.26713 22.2751 2.98449 22.78 2.89536 23.3343C2.80623 23.8887 2.91637 24.4566 3.20624 24.9375L6.00874 29.6875C6.21699 30.0482 6.51642 30.3478 6.877 30.5562C7.23758 30.7646 7.64663 30.8746 8.06312 30.875C8.32122 30.877 8.57792 30.8369 8.82312 30.7562L11.7087 29.7825C12.2063 30.1146 12.726 30.4122 13.2644 30.6731L13.87 33.6656C13.9786 34.2123 14.276 34.7034 14.7102 35.053C15.1444 35.4025 15.6877 35.5882 16.245 35.5775H21.85C22.4073 35.5882 22.9506 35.4025 23.3848 35.053C23.819 34.7034 24.1164 34.2123 24.225 33.6656L24.8306 30.6731C25.3722 30.4111 25.8958 30.1136 26.3981 29.7825L29.2719 30.7562C29.5171 30.8369 29.7738 30.877 30.0319 30.875C30.4484 30.8746 30.8574 30.7646 31.218 30.5562C31.5786 30.3478 31.878 30.0482 32.0862 29.6875L34.7937 24.9375C35.0709 24.4613 35.1739 23.9036 35.0851 23.3598C34.9963 22.8161 34.7212 22.3201 34.3069 21.9569L32.0625 19.9025ZM29.9369 28.5L25.8637 27.1225C24.9097 27.9293 23.8201 28.5605 22.6456 28.9869L21.8025 33.25H16.1975L15.3544 29.0344C14.1891 28.5961 13.1054 27.9659 12.1481 27.17L8.06312 28.5L5.26062 23.75L8.49062 20.9C8.27105 19.6708 8.27105 18.4123 8.49062 17.1831L5.26062 14.25L8.06312 9.49999L12.1362 10.8775C13.0903 10.0707 14.1799 9.43946 15.3544 9.01312L16.1975 4.74999H21.8025L22.6456 8.96562C23.8109 9.40393 24.8946 10.0341 25.8519 10.83L29.9369 9.49999L32.7394 14.25L29.5094 17.1C29.7289 18.3292 29.7289 19.5876 29.5094 20.8169L32.7394 23.75L29.9369 28.5Z" fill="black"/>
<path d="M19 26.125C17.5908 26.125 16.2133 25.7071 15.0416 24.9242C13.8699 24.1413 12.9566 23.0285 12.4174 21.7266C11.8781 20.4247 11.737 18.9921 12.0119 17.61C12.2868 16.2279 12.9654 14.9583 13.9619 13.9619C14.9583 12.9654 16.2279 12.2868 17.61 12.0119C18.9921 11.737 20.4247 11.8781 21.7266 12.4174C23.0285 12.9566 24.1413 13.8699 24.9242 15.0416C25.7071 16.2133 26.125 17.5908 26.125 19C26.1345 19.9383 25.9567 20.8691 25.6021 21.7379C25.2474 22.6066 24.7229 23.3958 24.0594 24.0594C23.3958 24.7229 22.6066 25.2474 21.7379 25.6021C20.8691 25.9567 19.9383 26.1345 19 26.125ZM19 14.25C18.3722 14.2354 17.748 14.3482 17.1651 14.5818C16.5822 14.8153 16.0527 15.1647 15.6087 15.6087C15.1647 16.0527 14.8153 16.5822 14.5818 17.1651C14.3482 17.748 14.2354 18.3722 14.25 19C14.2354 19.6278 14.3482 20.252 14.5818 20.8349C14.8153 21.4178 15.1647 21.9473 15.6087 22.3913C16.0527 22.8353 16.5822 23.1847 17.1651 23.4182C17.748 23.6518 18.3722 23.7646 19 23.75C19.6278 23.7646 20.252 23.6518 20.8349 23.4182C21.4178 23.1847 21.9473 22.8353 22.3913 22.3913C22.8353 21.9473 23.1847 21.4178 23.4182 20.8349C23.6518 20.252 23.7646 19.6278 23.75 19C23.7646 18.3722 23.6518 17.748 23.4182 17.1651C23.1847 16.5822 22.8353 16.0527 22.3913 15.6087C21.9473 15.1647 21.4178 14.8153 20.8349 14.5818C20.252 14.3482 19.6278 14.2354 19 14.25Z" fill="black"/>
</svg>
