<svg width="42" height="42" viewBox="0 0 42 42" fill="none" xmlns="http://www.w3.org/2000/svg">
<path fill-rule="evenodd" clip-rule="evenodd" d="M28 15.75C28 17.6065 27.2625 19.387 25.9497 20.6997C24.637 22.0125 22.8565 22.75 21 22.75C19.1435 22.75 17.363 22.0125 16.0503 20.6997C14.7375 19.387 14 17.6065 14 15.75C14 13.8935 14.7375 12.113 16.0503 10.8003C17.363 9.4875 19.1435 8.75 21 8.75C22.8565 8.75 24.637 9.4875 25.9497 10.8003C27.2625 12.113 28 13.8935 28 15.75ZM24.5 15.75C24.5 16.6783 24.1313 17.5685 23.4749 18.2249C22.8185 18.8813 21.9283 19.25 21 19.25C20.0717 19.25 19.1815 18.8813 18.5251 18.2249C17.8687 17.5685 17.5 16.6783 17.5 15.75C17.5 14.8217 17.8687 13.9315 18.5251 13.2751C19.1815 12.6187 20.0717 12.25 21 12.25C21.9283 12.25 22.8185 12.6187 23.4749 13.2751C24.1313 13.9315 24.5 14.8217 24.5 15.75Z" fill="black"/>
<path fill-rule="evenodd" clip-rule="evenodd" d="M21 1.75C10.3688 1.75 1.75 10.3688 1.75 21C1.75 31.6312 10.3688 40.25 21 40.25C31.6312 40.25 40.25 31.6312 40.25 21C40.25 10.3688 31.6312 1.75 21 1.75ZM5.25 21C5.25 24.6575 6.49775 28.0245 8.589 30.6985C10.058 28.7702 11.9528 27.2075 14.1254 26.1323C16.298 25.0571 18.6896 24.4984 21.1137 24.5C23.5067 24.4972 25.8686 25.0409 28.0195 26.0897C30.1703 27.1384 32.0533 28.6645 33.5247 30.5515C35.041 28.5628 36.062 26.2416 36.5031 23.78C36.9442 21.3184 36.7928 18.7872 36.0614 16.3957C35.33 14.0043 34.0396 11.8213 32.2971 10.0276C30.5546 8.2338 28.4099 6.88075 26.0407 6.08039C23.6714 5.28003 21.1456 5.05535 18.6723 5.42495C16.1989 5.79456 13.8491 6.74781 11.8173 8.20584C9.78556 9.66388 8.13017 11.5848 6.98815 13.8096C5.84613 16.0344 5.25032 18.4992 5.25 21ZM21 36.75C17.3843 36.7559 13.8778 35.512 11.074 33.229C12.2024 31.6131 13.7046 30.2937 15.4526 29.3833C17.2007 28.4729 19.1428 27.9983 21.1137 28C23.0601 27.9983 24.9787 28.461 26.7102 29.3498C28.4418 30.2385 29.9362 31.5276 31.0695 33.11C28.2441 35.4673 24.6796 36.7558 21 36.75Z" fill="black"/>
</svg>
