<svg width="29" height="29" viewBox="0 0 29 29" fill="none" xmlns="http://www.w3.org/2000/svg">
<path fill-rule="evenodd" clip-rule="evenodd" d="M2.44687 19.0313C2.52783 21.4733 2.81299 22.9402 3.83162 23.9588C4.20265 24.3275 4.64678 24.6144 5.13541 24.801V26.5833C5.13541 26.8237 5.23089 27.0542 5.40084 27.2242C5.5708 27.3941 5.80131 27.4896 6.04166 27.4896C6.28201 27.4896 6.51252 27.3941 6.68248 27.2242C6.85243 27.0542 6.94791 26.8237 6.94791 26.5833V25.2191C8.24083 25.375 9.89987 25.375 12.0833 25.375H16.9167C19.0989 25.375 20.7592 25.375 22.0521 25.2191V26.5833C22.0521 26.8237 22.1476 27.0542 22.3175 27.2242C22.4875 27.3941 22.718 27.4896 22.9583 27.4896C23.1987 27.4896 23.4292 27.3941 23.5991 27.2242C23.7691 27.0542 23.8646 26.8237 23.8646 26.5833V24.801C24.3528 24.6143 24.7965 24.3274 25.1672 23.9588C26.1435 22.9825 26.4468 21.5953 26.541 19.3333L26.5519 19.0313C26.5543 18.5576 26.5833 16.2424 26.5833 15.7083V12.0833C26.5833 7.52671 26.5833 5.24779 25.1672 3.83283C23.751 2.41788 21.4733 2.41667 16.9167 2.41667H15.4062V19.0313H2.44687ZM7.55208 21.75C7.55208 21.5096 7.64756 21.2791 7.81751 21.1092C7.98747 20.9392 8.21797 20.8438 8.45833 20.8438H10.875C11.1153 20.8438 11.3459 20.9392 11.5158 21.1092C11.6858 21.2791 11.7812 21.5096 11.7812 21.75C11.7812 21.9904 11.6858 22.2209 11.5158 22.3908C11.3459 22.5608 11.1153 22.6563 10.875 22.6563H8.45833C8.21797 22.6563 7.98747 22.5608 7.81751 22.3908C7.64756 22.2209 7.55208 21.9904 7.55208 21.75ZM18.125 20.8438C17.8846 20.8438 17.6541 20.9392 17.4842 21.1092C17.3142 21.2791 17.2187 21.5096 17.2187 21.75C17.2187 21.9904 17.3142 22.2209 17.4842 22.3908C17.6541 22.5608 17.8846 22.6563 18.125 22.6563H20.5417C20.782 22.6563 21.0125 22.5608 21.1825 22.3908C21.3524 22.2209 21.4479 21.9904 21.4479 21.75C21.4479 21.5096 21.3524 21.2791 21.1825 21.1092C21.0125 20.9392 20.782 20.8438 20.5417 20.8438H18.125ZM18.125 8.76042C18.3653 8.76042 18.5959 8.8559 18.7658 9.02585C18.9358 9.19581 19.0312 9.42632 19.0312 9.66667V12.0833C19.0312 12.3237 18.9358 12.5542 18.7658 12.7241C18.5959 12.8941 18.3653 12.9896 18.125 12.9896C17.8846 12.9896 17.6541 12.8941 17.4842 12.7241C17.3142 12.5542 17.2187 12.3237 17.2187 12.0833V9.66667C17.2187 9.42632 17.3142 9.19581 17.4842 9.02585C17.6541 8.8559 17.8846 8.76042 18.125 8.76042Z" fill="black"/>
<path opacity="0.5" d="M12.0833 2.41667H13.5938V8.76042H2.44809C2.52784 6.31838 2.81301 4.85146 3.83284 3.83283C5.2478 2.41667 7.52671 2.41667 12.0833 2.41667ZM2.41909 10.5729C2.41748 11.0458 2.41667 11.5493 2.41667 12.0833V15.7083C2.41667 16.2424 2.44567 18.5576 2.44688 19.0313H13.5938V10.5729H2.41909Z" fill="black"/>
</svg>
