<svg width="16" height="16" viewBox="0 0 16 16" fill="none" xmlns="http://www.w3.org/2000/svg">
<path d="M9.33334 8.66665C9.60001 8.66665 9.84179 8.59442 10.0587 8.44998C10.2756 8.30554 10.4393 8.11109 10.55 7.86665C10.5833 7.71109 10.6611 7.58331 10.7833 7.48331C10.9056 7.38331 11.0445 7.33331 11.2 7.33331H13.3333V2.66665H5.33334V7.33331H7.46668C7.62223 7.33331 7.76112 7.38065 7.88334 7.47531C8.00557 7.56998 8.08334 7.69487 8.11668 7.84998C8.17223 8.11665 8.31668 8.31954 8.55001 8.45865C8.78334 8.59776 9.04446 8.66709 9.33334 8.66665ZM5.33334 12C4.96668 12 4.6529 11.8695 4.39201 11.6086C4.13112 11.3478 4.00045 11.0338 4.00001 10.6666V2.66665C4.00001 2.29998 4.13068 1.9862 4.39201 1.72531C4.65334 1.46442 4.96712 1.33376 5.33334 1.33331H13.3333C13.7 1.33331 14.014 1.46398 14.2753 1.72531C14.5367 1.98665 14.6671 2.30042 14.6667 2.66665V10.6666C14.6667 11.0333 14.5362 11.3473 14.2753 11.6086C14.0145 11.87 13.7005 12.0004 13.3333 12H5.33334ZM2.66668 14.6666C2.30001 14.6666 1.98623 14.5362 1.72534 14.2753C1.46445 14.0144 1.33379 13.7004 1.33334 13.3333V4.66665C1.33334 4.47776 1.39734 4.31954 1.52534 4.19198C1.65334 4.06442 1.81157 4.00042 2.00001 3.99998C2.18845 3.99954 2.3469 4.06354 2.47534 4.19198C2.60379 4.32042 2.66757 4.47865 2.66668 4.66665V13.3333H11.3333C11.5222 13.3333 11.6807 13.3973 11.8087 13.5253C11.9367 13.6533 12.0005 13.8115 12 14C11.9996 14.1884 11.9356 14.3469 11.808 14.4753C11.6805 14.6038 11.5222 14.6675 11.3333 14.6666H2.66668Z" fill="white"/>
</svg>
