<svg width="16" height="16" viewBox="0 0 16 16" fill="none" xmlns="http://www.w3.org/2000/svg">
<g clip-path="url(#clip0_7_285)">
<path d="M4.33009 0.501953C2.60906 1.34292 1.29559 2.7123 0.503875 4.32905L2.37694 5.24802C2.97031 4.03411 3.95412 3.00405 5.24606 2.37302L4.33003 0.501953H4.33009ZM11.6689 0.506828L10.75 2.37886C11.9639 2.9723 12.994 3.95605 13.625 5.24802L15.4961 4.33198C14.6551 2.61095 13.2857 1.29845 11.6689 0.506797L11.6689 0.506828ZM13.623 10.748C13.0298 11.9625 12.0439 12.9878 10.752 13.6191L11.6719 15.498C13.3942 14.6566 14.7058 13.2867 15.4961 11.6679L13.623 10.748ZM2.375 10.7519L0.5 11.6699C1.3415 13.3916 2.71175 14.7037 4.33009 15.4941L5.24903 13.621C4.03506 13.0276 3.006 12.0437 2.375 10.7519V10.7519Z" fill="white"/>
</g>
<defs>
<clipPath id="clip0_7_285">
<rect width="16" height="16" fill="white"/>
</clipPath>
</defs>
</svg>
