<svg width="27" height="27" viewBox="0 0 27 27" fill="none" xmlns="http://www.w3.org/2000/svg">
<path d="M13.5 4.5V2.48625C13.5 1.98 12.8925 1.7325 12.5437 2.0925L9.39375 5.23125C9.16875 5.45625 9.16875 5.805 9.39375 6.03L12.5325 9.16875C12.8925 9.5175 13.5 9.27 13.5 8.76375V6.75C17.2237 6.75 20.25 9.77625 20.25 13.5C20.25 14.3888 20.0812 15.255 19.755 16.0313C19.5862 16.4363 19.71 16.8975 20.0138 17.2013C20.5875 17.775 21.555 17.5725 21.8588 16.8188C22.275 15.795 22.5 14.67 22.5 13.5C22.5 8.5275 18.4725 4.5 13.5 4.5ZM13.5 20.25C9.77625 20.25 6.75 17.2238 6.75 13.5C6.75 12.6113 6.91875 11.745 7.245 10.9688C7.41375 10.5638 7.29 10.1025 6.98625 9.79875C6.4125 9.225 5.445 9.4275 5.14125 10.1813C4.725 11.205 4.5 12.33 4.5 13.5C4.5 18.4725 8.5275 22.5 13.5 22.5V24.5138C13.5 25.02 14.1075 25.2675 14.4563 24.9075L17.595 21.7688C17.82 21.5438 17.82 21.195 17.595 20.97L14.4563 17.8313C14.3769 17.7535 14.2764 17.701 14.1673 17.6803C14.0582 17.6596 13.9454 17.6717 13.8431 17.715C13.7409 17.7583 13.6537 17.8309 13.5926 17.9237C13.5316 18.0164 13.4993 18.1252 13.5 18.2363V20.25Z" fill="black"/>
</svg>
