<svg width="16" height="14" viewBox="0 0 16 14" fill="none" xmlns="http://www.w3.org/2000/svg">
<g clip-path="url(#clip0_7_217)">
<path d="M1.77778 3.5C1.77778 3.09783 1.85825 2.69959 2.0146 2.32803C2.17094 1.95647 2.40011 1.61886 2.689 1.33449C2.97789 1.05011 3.32086 0.824524 3.69832 0.670619C4.07578 0.516714 4.48033 0.4375 4.88889 0.4375C5.29745 0.4375 5.702 0.516714 6.07946 0.670619C6.45692 0.824524 6.79988 1.05011 7.08878 1.33449C7.37767 1.61886 7.60683 1.95647 7.76318 2.32803C7.91953 2.69959 8 3.09783 8 3.5C8 3.90217 7.91953 4.30041 7.76318 4.67197C7.60683 5.04353 7.37767 5.38113 7.08878 5.66551C6.79988 5.94989 6.45692 6.17548 6.07946 6.32938C5.702 6.48329 5.29745 6.5625 4.88889 6.5625C4.48033 6.5625 4.07578 6.48329 3.69832 6.32938C3.32086 6.17548 2.97789 5.94989 2.689 5.66551C2.40011 5.38113 2.17094 5.04353 2.0146 4.67197C1.85825 4.30041 1.77778 3.90217 1.77778 3.5ZM0 12.6875C0 10.0297 2.18889 7.875 4.88889 7.875C7.58889 7.875 9.77778 10.0297 9.77778 12.6875V12.8516C9.77778 13.4859 9.25556 14 8.61111 14H1.16667C0.522222 14 0 13.4859 0 12.8516V12.6875ZM12 1.75C12.7072 1.75 13.3855 2.02656 13.8856 2.51884C14.3857 3.01113 14.6667 3.67881 14.6667 4.375C14.6667 5.07119 14.3857 5.73887 13.8856 6.23116C13.3855 6.72344 12.7072 7 12 7C11.2928 7 10.6145 6.72344 10.1144 6.23116C9.61428 5.73887 9.33333 5.07119 9.33333 4.375C9.33333 3.67881 9.61428 3.01113 10.1144 2.51884C10.6145 2.02656 11.2928 1.75 12 1.75ZM12 8.3125C14.2083 8.3125 16 10.0762 16 12.25V12.8625C16 13.4914 15.4833 14 14.8444 14H10.8222C11.0056 13.6582 11.1111 13.2672 11.1111 12.8516V12.6875C11.1111 11.2793 10.6278 9.9832 9.81944 8.94961C10.4472 8.54766 11.1972 8.3125 12 8.3125Z" fill="black" fill-opacity="0.57"/>
</g>
<defs>
<clipPath id="clip0_7_217">
<rect width="16" height="14" fill="white"/>
</clipPath>
</defs>
</svg>
