<svg width="16" height="16" viewBox="0 0 16 16" fill="none" xmlns="http://www.w3.org/2000/svg">
<path d="M9.33333 8.66666C9.6 8.66666 9.84177 8.59444 10.0587 8.45C10.2756 8.30555 10.4393 8.11111 10.55 7.86666C10.5833 7.71111 10.6611 7.58333 10.7833 7.48333C10.9056 7.38333 11.0444 7.33333 11.2 7.33333H13.3333V2.66666H5.33333V7.33333H7.46666C7.62222 7.33333 7.76111 7.38066 7.88333 7.47533C8.00555 7.57 8.08333 7.69488 8.11666 7.84999C8.17222 8.11666 8.31666 8.31955 8.54999 8.45866C8.78333 8.59777 9.04444 8.66711 9.33333 8.66666ZM5.33333 12C4.96666 12 4.65288 11.8696 4.39199 11.6087C4.13111 11.3478 4.00044 11.0338 3.99999 10.6667V2.66666C3.99999 2.29999 4.13066 1.98622 4.39199 1.72533C4.65333 1.46444 4.96711 1.33377 5.33333 1.33333H13.3333C13.7 1.33333 14.014 1.46399 14.2753 1.72533C14.5367 1.98666 14.6671 2.30044 14.6667 2.66666V10.6667C14.6667 11.0333 14.5362 11.3473 14.2753 11.6087C14.0144 11.87 13.7004 12.0004 13.3333 12H5.33333ZM2.66666 14.6667C2.29999 14.6667 1.98622 14.5362 1.72533 14.2753C1.46444 14.0144 1.33377 13.7004 1.33333 13.3333V4.66666C1.33333 4.47777 1.39733 4.31955 1.52533 4.192C1.65333 4.06444 1.81155 4.00044 1.99999 3.99999C2.18844 3.99955 2.34688 4.06355 2.47533 4.192C2.60377 4.32044 2.66755 4.47866 2.66666 4.66666V13.3333H11.3333C11.5222 13.3333 11.6807 13.3973 11.8087 13.5253C11.9367 13.6533 12.0004 13.8116 12 14C11.9996 14.1884 11.9356 14.3469 11.808 14.4753C11.6804 14.6038 11.5222 14.6676 11.3333 14.6667H2.66666Z" fill="black" fill-opacity="0.57"/>
</svg>
