<svg width="30" height="30" viewBox="0 0 30 30" fill="none" xmlns="http://www.w3.org/2000/svg">
<path fill-rule="evenodd" clip-rule="evenodd" d="M2.53125 19.6875C2.615 22.2137 2.91 23.7312 3.96375 24.785C4.34757 25.1664 4.80702 25.4632 5.3125 25.6562V27.5C5.3125 27.7486 5.41127 27.9871 5.58709 28.1629C5.7629 28.3387 6.00136 28.4375 6.25 28.4375C6.49864 28.4375 6.7371 28.3387 6.91291 28.1629C7.08873 27.9871 7.1875 27.7486 7.1875 27.5V26.0888C8.525 26.25 10.2413 26.25 12.5 26.25H17.5C19.7575 26.25 21.475 26.25 22.8125 26.0888V27.5C22.8125 27.7486 22.9113 27.9871 23.0871 28.1629C23.2629 28.3387 23.5014 28.4375 23.75 28.4375C23.9986 28.4375 24.2371 28.3387 24.4129 28.1629C24.5887 27.9871 24.6875 27.7486 24.6875 27.5V25.6562C25.1925 25.463 25.6515 25.1663 26.035 24.785C27.045 23.775 27.3588 22.34 27.4563 20L27.4675 19.6875C27.47 19.1975 27.5 16.8025 27.5 16.25V12.5C27.5 7.78625 27.5 5.42875 26.035 3.965C24.57 2.50125 22.2138 2.5 17.5 2.5H15.9375V19.6875H2.53125ZM7.8125 22.5C7.8125 22.2514 7.91127 22.0129 8.08709 21.8371C8.2629 21.6613 8.50136 21.5625 8.75 21.5625H11.25C11.4986 21.5625 11.7371 21.6613 11.9129 21.8371C12.0887 22.0129 12.1875 22.2514 12.1875 22.5C12.1875 22.7486 12.0887 22.9871 11.9129 23.1629C11.7371 23.3387 11.4986 23.4375 11.25 23.4375H8.75C8.50136 23.4375 8.2629 23.3387 8.08709 23.1629C7.91127 22.9871 7.8125 22.7486 7.8125 22.5ZM18.75 21.5625C18.5014 21.5625 18.2629 21.6613 18.0871 21.8371C17.9113 22.0129 17.8125 22.2514 17.8125 22.5C17.8125 22.7486 17.9113 22.9871 18.0871 23.1629C18.2629 23.3387 18.5014 23.4375 18.75 23.4375H21.25C21.4986 23.4375 21.7371 23.3387 21.9129 23.1629C22.0887 22.9871 22.1875 22.7486 22.1875 22.5C22.1875 22.2514 22.0887 22.0129 21.9129 21.8371C21.7371 21.6613 21.4986 21.5625 21.25 21.5625H18.75ZM18.75 9.0625C18.9986 9.0625 19.2371 9.16127 19.4129 9.33709C19.5887 9.5129 19.6875 9.75136 19.6875 10V12.5C19.6875 12.7486 19.5887 12.9871 19.4129 13.1629C19.2371 13.3387 18.9986 13.4375 18.75 13.4375C18.5014 13.4375 18.2629 13.3387 18.0871 13.1629C17.9113 12.9871 17.8125 12.7486 17.8125 12.5V10C17.8125 9.75136 17.9113 9.5129 18.0871 9.33709C18.2629 9.16127 18.5014 9.0625 18.75 9.0625Z" fill="white"/>
<path opacity="0.5" d="M12.5 2.5H14.0625V9.0625H2.5325C2.615 6.53625 2.91 5.01875 3.965 3.965C5.42875 2.5 7.78625 2.5 12.5 2.5ZM2.5025 10.9375C2.50083 11.4267 2.5 11.9475 2.5 12.5V16.25C2.5 16.8025 2.53 19.1975 2.53125 19.6875H14.0625V10.9375H2.5025Z" fill="white"/>
</svg>
