<svg width="22" height="22" viewBox="0 0 22 22" fill="none" xmlns="http://www.w3.org/2000/svg">
<path d="M4.71439 12.8333C4.02658 11.707 3.66394 10.4122 3.66664 9.09241C3.66664 5.08291 6.95014 1.83333 11 1.83333C15.0498 1.83333 18.3333 5.08291 18.3333 9.09241C18.336 10.4122 17.9734 11.707 17.2856 12.8333" stroke="black" stroke-width="1.5" stroke-linecap="round"/>
<path d="M13.75 17.4167L13.6308 18.0097C13.5025 18.6578 13.4374 18.9814 13.2916 19.2381C13.067 19.6337 12.7034 19.9316 12.2714 20.0741C11.9918 20.1667 11.66 20.1667 11 20.1667C10.34 20.1667 10.0081 20.1667 9.72853 20.075C9.29636 19.9323 8.9327 19.634 8.70828 19.2381C8.56253 18.9814 8.49745 18.6578 8.36912 18.0097L8.24995 17.4167M6.7677 15.6732C6.68337 15.4202 6.6412 15.2927 6.64578 15.1901C6.65097 15.0839 6.6868 14.9815 6.74895 14.8953C6.81109 14.8091 6.89688 14.7427 6.99595 14.7042C7.09128 14.6667 7.22512 14.6667 7.49095 14.6667H14.509C14.7757 14.6667 14.9086 14.6667 15.004 14.7033C15.1032 14.7419 15.189 14.8084 15.2512 14.8948C15.3134 14.9812 15.3491 15.0838 15.3541 15.1901C15.3587 15.2927 15.3165 15.4192 15.2322 15.6732C15.0764 16.1416 14.9985 16.3762 14.8784 16.566C14.6272 16.9625 14.2335 17.2477 13.7784 17.3626C13.5602 17.4167 13.3145 17.4167 12.8223 17.4167H9.17762C8.68537 17.4167 8.43878 17.4167 8.22153 17.3617C7.76656 17.247 7.37287 16.9622 7.12153 16.566C7.00145 16.3762 6.92353 16.1416 6.7677 15.6732Z" stroke="black" stroke-width="1.5"/>
<path d="M11 14.6667V10.0833" stroke="black" stroke-width="1.5" stroke-linecap="round" stroke-linejoin="round"/>
</svg>
