<svg width="38" height="38" viewBox="0 0 38 38" fill="none" xmlns="http://www.w3.org/2000/svg">
<path d="M16.8055 5.54086C16.9064 5.4376 17.0269 5.35559 17.1599 5.29967C17.293 5.24375 17.4359 5.21505 17.5803 5.21527C17.7246 5.21549 17.8674 5.24463 18.0003 5.30096C18.1332 5.35729 18.2535 5.43967 18.354 5.54324L30.6613 18.1711C30.8774 18.3929 30.9984 18.6903 30.9984 19C30.9984 19.3097 30.8774 19.6071 30.6613 19.8289L18.354 32.4567C18.2533 32.5602 18.1329 32.6424 17.9999 32.6985C17.867 32.7546 17.7241 32.7835 17.5797 32.7835C17.4354 32.7835 17.2925 32.7546 17.1596 32.6985C17.0266 32.6424 16.9062 32.5602 16.8055 32.4567C16.5983 32.2447 16.4823 31.96 16.4823 31.6635C16.4823 31.367 16.5983 31.0823 16.8055 30.8702L28.3789 19L16.8055 7.12499C16.599 6.91302 16.4835 6.62882 16.4835 6.33292C16.4835 6.03703 16.599 5.75283 16.8055 5.54086ZM7.3055 5.54086C7.40635 5.4376 7.52686 5.35559 7.65993 5.29967C7.79299 5.24375 7.93591 5.21505 8.08025 5.21527C8.22459 5.21549 8.36742 5.24463 8.50031 5.30096C8.63321 5.35729 8.75347 5.43967 8.854 5.54324L21.1613 18.1711C21.3774 18.3929 21.4984 18.6903 21.4984 19C21.4984 19.3097 21.3774 19.6071 21.1613 19.8289L8.854 32.4567C8.75331 32.5602 8.63292 32.6424 8.49994 32.6985C8.36696 32.7546 8.22409 32.7835 8.07975 32.7835C7.93541 32.7835 7.79254 32.7546 7.65956 32.6985C7.52658 32.6424 7.40619 32.5602 7.3055 32.4567C7.09833 32.2447 6.98235 31.96 6.98235 31.6635C6.98235 31.367 7.09833 31.0823 7.3055 30.8702L18.8789 19L7.3055 7.12499C7.09904 6.91302 6.9835 6.62882 6.9835 6.33292C6.9835 6.03703 7.09904 5.75283 7.3055 5.54086Z" fill="white"/>
</svg>
