<svg width="262" height="347" viewBox="0 0 262 347" fill="none" xmlns="http://www.w3.org/2000/svg">
<path d="M240.312 151.812H197.516L237.059 135.475C239.752 134.427 242.209 132.853 244.284 130.843C246.36 128.833 248.013 126.429 249.147 123.771C250.281 121.113 250.872 118.256 250.886 115.367C250.9 112.478 250.336 109.615 249.229 106.946C248.121 104.278 246.491 101.857 244.435 99.8276C242.378 97.7978 239.937 96.1994 237.255 95.1261C234.572 94.0528 231.702 93.5264 228.813 93.5777C225.924 93.629 223.075 94.2571 220.432 95.425L181.033 111.691L211.251 81.4004C213.382 79.4149 215.091 77.0206 216.276 74.3603C217.462 71.7 218.099 68.8282 218.151 65.9162C218.202 63.0042 217.666 60.1117 216.575 57.4112C215.485 54.7107 213.861 52.2576 211.802 50.1982C209.742 48.1388 207.289 46.5153 204.589 45.4245C201.888 44.3338 198.996 43.7981 196.084 43.8495C193.172 43.9009 190.3 44.5382 187.64 45.7236C184.979 46.9089 182.585 48.618 180.6 50.7487L150.237 80.9667L166.647 41.4954C167.815 38.8527 168.443 36.0032 168.495 33.1143C168.546 30.2255 168.019 27.3555 166.946 24.6729C165.873 21.9904 164.274 19.5493 162.245 17.4931C160.215 15.4369 157.795 13.807 155.126 12.6991C152.458 11.5913 149.595 11.0278 146.705 11.0418C143.816 11.0558 140.959 11.647 138.301 12.7806C135.644 13.9143 133.239 15.5675 131.229 17.6433C129.22 19.7191 127.645 22.1755 126.598 24.8683L110.188 64.4842V21.6875C110.188 15.9356 107.903 10.4193 103.835 6.35212C99.7682 2.28493 94.2519 0 88.5 0C82.7481 0 77.2318 2.28493 73.1646 6.35212C69.0974 10.4193 66.8125 15.9356 66.8125 21.6875V64.4842L50.4023 24.9406C49.3551 22.2478 47.7803 19.7913 45.7705 17.7156C43.7607 15.6398 41.3564 13.9865 38.6988 12.8529C36.0412 11.7193 33.1838 11.1281 30.2945 11.1141C27.4053 11.1001 24.5423 11.6636 21.8738 12.7714C19.2054 13.8793 16.7851 15.5092 14.7553 17.5654C12.7255 19.6216 11.1271 22.0627 10.0538 24.7452C8.98051 27.4278 8.45409 30.2978 8.50542 33.1866C8.55676 36.0755 9.18481 38.925 10.3527 41.5677L26.6906 81.039L-3.5273 50.821C-5.51277 48.6903 -7.90708 46.9812 -10.5674 45.7959C-13.2277 44.6105 -16.0995 43.9731 -19.0115 43.9218C-21.9235 43.8704 -24.816 44.4061 -27.5165 45.4968C-30.217 46.5876 -32.6701 48.2111 -34.7295 50.2705C-36.7889 52.3299 -38.4124 54.783 -39.5032 57.4835C-40.5939 60.184 -41.1296 63.0765 -41.0782 65.9885C-41.0269 68.9005 -40.3895 71.7723 -39.2041 74.4326C-38.0188 77.0929 -36.3097 79.4872 -34.179 81.4727L-3.96104 111.763L-43.5046 95.3527C-46.1473 94.1848 -48.9968 93.5568 -51.8857 93.5054C-54.7745 93.4541 -57.6445 93.9805 -60.3271 95.0538C-63.0096 96.1271 -65.4507 97.7255 -67.5069 99.7553C-69.5631 101.785 -71.193 104.205 -72.3009 106.874C-73.4087 109.542 -73.9722 112.405 -73.9582 115.295C-73.9442 118.184 -73.353 121.041 -72.2194 123.699C-71.0857 126.356 -69.4325 128.761 -67.3567 130.771C-65.2809 132.78 -62.8245 134.355 -60.1317 135.402L-20.4435 151.812H-63.3125C-69.0644 151.812 -74.5807 154.097 -78.6479 158.165C-82.7151 162.232 -85 167.748 -85 173.5C-85 179.252 -82.7151 184.768 -78.6479 188.835C-74.5807 192.903 -69.0644 195.188 -63.3125 195.188H-20.5158L-60.0594 211.598C-62.7522 212.645 -65.2087 214.22 -67.2844 216.229C-69.3602 218.239 -71.0135 220.644 -72.1471 223.301C-73.2807 225.959 -73.8719 228.816 -73.8859 231.705C-73.8999 234.595 -73.3364 237.458 -72.2286 240.126C-71.1207 242.795 -69.4908 245.215 -67.4346 247.245C-65.3784 249.274 -62.9373 250.873 -60.2548 251.946C-57.5722 253.019 -54.7022 253.546 -51.8134 253.495C-48.9245 253.443 -46.075 252.815 -43.4323 251.647L-3.96104 235.309L-34.179 265.527C-36.3097 267.513 -38.0188 269.907 -39.2041 272.567C-40.3895 275.228 -41.0269 278.1 -41.0782 281.012C-41.1296 283.923 -40.5939 286.816 -39.5032 289.517C-38.4124 292.217 -36.7889 294.67 -34.7295 296.729C-32.6701 298.789 -30.217 300.412 -27.5165 301.503C-24.816 302.594 -21.9235 303.13 -19.0115 303.078C-16.0995 303.027 -13.2277 302.389 -10.5674 301.204C-7.90708 300.019 -5.51277 298.31 -3.5273 296.179L26.7629 265.961L10.3527 305.505C9.18481 308.147 8.55676 310.997 8.50542 313.886C8.45409 316.775 8.98051 319.645 10.0538 322.327C11.1271 325.01 12.7255 327.451 14.7553 329.507C16.7851 331.563 19.2054 333.193 21.8738 334.301C24.5423 335.409 27.4053 335.972 30.2945 335.958C33.1838 335.944 36.0412 335.353 38.6988 334.219C41.3564 333.086 43.7607 331.432 45.7705 329.357C47.7803 327.281 49.3551 324.825 50.4023 322.132L66.8125 282.516V325.312C66.8125 331.064 69.0974 336.581 73.1646 340.648C77.2318 344.715 82.7481 347 88.5 347C94.2519 347 99.7682 344.715 103.835 340.648C107.903 336.581 110.188 331.064 110.188 325.312V282.516L126.598 322.059C127.645 324.752 129.22 327.209 131.229 329.284C133.239 331.36 135.644 333.013 138.301 334.147C140.959 335.281 143.816 335.872 146.705 335.886C149.595 335.9 152.458 335.336 155.126 334.229C157.795 333.121 160.215 331.491 162.245 329.435C164.274 327.378 165.873 324.937 166.946 322.255C168.019 319.572 168.546 316.702 168.495 313.813C168.443 310.924 167.815 308.075 166.647 305.432L150.309 266.033L180.527 296.251C182.513 298.382 184.907 300.091 187.567 301.276C190.228 302.462 193.1 303.099 196.012 303.151C198.923 303.202 201.816 302.666 204.517 301.575C207.217 300.485 209.67 298.861 211.729 296.802C213.789 294.742 215.412 292.289 216.503 289.589C217.594 286.888 218.13 283.996 218.078 281.084C218.027 278.172 217.389 275.3 216.204 272.64C215.019 269.979 213.31 267.585 211.179 265.6L181.033 235.237L220.577 251.647C223.22 252.815 226.069 253.443 228.958 253.495C231.847 253.546 234.717 253.019 237.399 251.946C240.082 250.873 242.523 249.274 244.579 247.245C246.635 245.215 248.265 242.795 249.373 240.126C250.481 237.458 251.044 234.595 251.03 231.705C251.017 228.816 250.425 225.959 249.292 223.301C248.158 220.644 246.505 218.239 244.429 216.229C242.353 214.22 239.897 212.645 237.204 211.598L197.444 195.188H240.312C246.064 195.188 251.581 192.903 255.648 188.835C259.715 184.768 262 179.252 262 173.5C262 167.748 259.715 162.232 255.648 158.165C251.581 154.097 246.064 151.812 240.312 151.812Z" fill="white" fill-opacity="0.53"/>
</svg>
