<svg width="34" height="34" viewBox="0 0 34 34" fill="none" xmlns="http://www.w3.org/2000/svg">
<path fill-rule="evenodd" clip-rule="evenodd" d="M16.5183 8.14581C15.334 8.14581 14.5718 8.98448 14.5718 9.78915C14.5718 10.0709 14.4599 10.3412 14.2606 10.5404C14.0614 10.7397 13.7911 10.8516 13.5093 10.8516C13.2275 10.8516 12.9573 10.7397 12.758 10.5404C12.5588 10.3412 12.4468 10.0709 12.4468 9.78915C12.4468 7.60323 14.3792 6.02081 16.5183 6.02081C18.6575 6.02081 20.5898 7.60323 20.5898 9.78915C20.5898 10.7525 20.2385 11.6506 19.6123 12.3306C19.414 12.5474 19.1958 12.7627 18.9961 12.9611L18.8913 13.0631C18.6743 13.2738 18.4659 13.493 18.2665 13.7204C18.1606 13.8427 18.0635 13.9724 17.9761 14.1086C18.7941 14.2608 19.5723 14.579 20.2626 15.0436L30.7927 22.1411C32.1385 23.0477 32.5026 24.5451 32.0351 25.8074C31.5747 27.0484 30.3478 27.9791 28.7541 27.9791H5.2445C3.66917 27.9791 2.448 27.0654 1.97767 25.84C1.49884 24.5933 1.836 23.1044 3.15067 22.1807L13.2019 15.1087C13.9521 14.5832 14.8111 14.2336 15.7151 14.0859C15.8638 13.3676 16.2718 12.7854 16.6473 12.3434C16.8909 12.0572 17.1573 11.7895 17.3967 11.5529L17.51 11.4396C17.7126 11.2412 17.8883 11.067 18.0483 10.8927C18.3062 10.6122 18.4648 10.2297 18.4648 9.78773C18.4648 8.98448 17.7027 8.14581 16.5183 8.14581ZM19.0754 16.8045C18.3812 16.3445 17.5635 16.1064 16.7308 16.1216C15.9067 16.1266 15.1031 16.3793 14.4245 16.847L4.37325 23.9176C3.88309 24.2618 3.81934 24.7081 3.96242 25.0778C4.11117 25.4674 4.53334 25.8541 5.2445 25.8541H28.7541C29.4752 25.8541 29.8959 25.4617 30.0433 25.0679C30.1807 24.6939 30.1098 24.2434 29.6041 23.9034L19.0754 16.8045Z" fill="white"/>
</svg>
